<svg version="1" xmlns="http://www.w3.org/2000/svg" width="346.667" height="346.667" viewBox="0 0 260.000000 260.000000"><path d="M71 67.8c0 .4-2.4 25.5-5.4 55.7-3 30.3-5.8 58.5-6.1 62.7l-.7 7.8h26l.6-7.3c.3-3.9 1.1-14.2 1.7-22.7 1.4-21.5 4.3-48.8 5.3-49.7 1.1-1-.2-4.3 12.6 34.2l10.6 32h24.8l12.3-32.5c6.7-17.9 12.4-33 12.6-33.5 1.2-2.9 2.2 2.5 3.8 21.7 1 11.7 2.2 29.4 2.6 39.3l.8 18 13.9.3 13.8.3-.7-9.8c-.3-5.4-2.6-33.2-5.1-61.8-2.4-28.6-4.4-52.8-4.4-53.8 0-1.6-1.3-1.7-18.2-1.5l-18.2.3L150 80c-6.7 23-19.3 60.1-20.4 59.7-1.4-.5-17-52.4-21-70L108 67H89.5c-10.2 0-18.5.4-18.5.8z"/></svg>